<?xml version="1.0" standalone="no"?>
<!DOCTYPE svg PUBLIC "-//W3C//DTD SVG 20010904//EN"
 "http://www.w3.org/TR/2001/REC-SVG-20010904/DTD/svg10.dtd">
<svg version="1.0" xmlns="http://www.w3.org/2000/svg"
 width="640.000000pt" height="640.000000pt" viewBox="0 0 640.000000 640.000000"
 preserveAspectRatio="xMidYMid meet">

<g transform="translate(0.000000,640.000000) scale(0.100000,-0.100000)"
fill="#000000" stroke="none">
<path d="M2232 5940 c-96 -25 -152 -51 -227 -105 -147 -104 -245 -258 -274
-430 -9 -52 -12 -319 -9 -1035 l3 -965 28 -79 c63 -177 199 -325 370 -400 106
-47 177 -56 446 -56 l250 0 7 -57 c4 -32 2 -101 -3 -153 -18 -159 16 -183 169
-116 131 57 268 170 343 284 l28 42 346 0 c399 0 437 5 578 75 154 76 269 207
331 377 l27 73 0 1010 c0 1118 4 1045 -68 1190 -57 115 -179 236 -297 294
-149 73 -120 71 -1100 70 -827 0 -879 -1 -948 -19z m1330 -472 c3 -239 3 -244
30 -300 35 -75 104 -141 174 -167 50 -19 77 -21 293 -21 192 0 241 -3 250 -14
9 -10 11 -211 9 -782 -4 -888 3 -824 -102 -930 -95 -95 -90 -94 -541 -94 -249
0 -393 -4 -413 -11 -26 -9 -39 -26 -80 -112 -46 -95 -111 -187 -133 -187 -5 0
-9 15 -9 33 0 47 -26 139 -55 198 -40 78 -46 79 -373 79 -312 0 -331 3 -417
68 -36 27 -60 56 -85 106 l-35 69 0 1026 0 1026 28 60 c35 74 110 147 180 174
50 19 77 20 664 20 l611 1 4 -242z"/>
<path d="M2577 5449 c-80 -19 -149 -78 -162 -139 -9 -40 -2 -47 57 -55 45 -7
47 -6 62 24 21 41 69 65 112 57 37 -8 74 -47 74 -81 0 -30 -34 -72 -78 -94
-59 -30 -76 -55 -77 -114 l0 -52 55 0 c54 0 54 0 61 35 4 19 12 36 18 38 26 9
106 69 124 94 24 33 33 114 18 160 -14 42 -65 96 -106 113 -44 18 -115 24
-158 14z"/>
<path d="M2568 4903 c-23 -27 -28 -51 -18 -78 24 -64 110 -71 136 -10 23 57
-7 105 -66 105 -23 0 -43 -7 -52 -17z"/>
<path d="M2485 4605 c-76 -27 -124 -112 -109 -193 9 -50 67 -107 124 -122 175
-47 284 195 132 294 -49 32 -97 39 -147 21z m102 -50 c26 -7 57 -48 67 -87 14
-60 -50 -138 -114 -138 -57 0 -120 68 -120 128 0 33 44 86 80 99 34 11 42 11
87 -2z"/>
<path d="M2850 4465 c-7 -8 -10 -22 -6 -30 5 -13 53 -15 393 -13 l388 3 0 25
0 25 -381 3 c-329 2 -383 0 -394 -13z"/>
<path d="M2475 4136 c-43 -18 -91 -77 -99 -120 -8 -44 7 -104 36 -141 60 -76
203 -72 259 7 98 137 -44 320 -196 254z m126 -59 c21 -14 39 -38 48 -63 12
-36 12 -44 -4 -77 -60 -127 -259 -56 -215 77 26 79 104 108 171 63z"/>
<path d="M2461 3663 c-64 -32 -101 -119 -82 -191 14 -50 76 -108 126 -118 84
-15 173 41 195 124 35 136 -110 249 -239 185z m137 -47 c47 -24 70 -88 49
-138 -23 -53 -52 -73 -107 -73 -40 0 -54 5 -78 28 -76 73 -29 195 76 197 18 0
45 -6 60 -14z"/>
<path d="M3904 3568 l-19 -23 23 19 c21 18 27 26 19 26 -2 0 -12 -10 -23 -22z"/>
<path d="M3840 3576 c0 -2 8 -10 18 -17 15 -13 16 -12 3 4 -13 16 -21 21 -21
13z"/>
<path d="M3954 3548 l-29 -33 33 29 c17 17 32 31 32 33 0 8 -8 1 -36 -29z"/>
<path d="M3812 3553 c-10 -4 -10 -8 -1 -19 6 -8 16 -14 21 -14 7 0 6 5 -1 13
-6 8 -8 17 -4 20 7 8 4 8 -15 0z"/>
<path d="M3784 3448 l-19 -23 23 19 c12 11 22 21 22 23 0 8 -8 2 -26 -19z"/>
<path d="M3890 3459 c0 -3 14 -18 32 -35 18 -16 26 -21 19 -12 -7 9 -9 23 -5
29 5 8 2 10 -8 6 -9 -3 -21 0 -27 6 -6 6 -11 9 -11 6z"/>
<path d="M1690 2415 c-343 -63 -549 -411 -437 -741 55 -163 166 -274 349 -347
33 -14 37 -19 45 -69 12 -75 37 -77 107 -10 47 46 56 50 114 56 34 4 81 14
103 22 23 7 45 14 49 14 5 0 24 -22 44 -50 l36 -50 115 0 c92 0 117 3 121 15
3 8 -19 62 -50 119 l-57 105 39 58 c84 126 115 260 94 406 -31 217 -200 409
-407 460 -92 23 -182 27 -265 12z m225 -233 c131 -50 217 -175 219 -317 2
-151 -83 -275 -226 -329 -68 -26 -196 -19 -263 14 -132 64 -207 207 -186 356
32 221 252 354 456 276z"/>
<path d="M3495 2396 c-65 -29 -89 -94 -58 -156 22 -42 54 -60 112 -60 36 0 49
6 77 34 26 26 34 42 34 70 0 52 -25 95 -65 112 -42 17 -61 17 -100 0z"/>
<path d="M2577 2083 l-38 -4 3 -282 c3 -270 4 -284 26 -332 29 -64 64 -100
127 -133 41 -21 64 -26 130 -26 92 -1 151 21 200 73 l30 31 5 -42 5 -43 95 0
95 0 3 374 c1 229 -1 377 -7 381 -14 8 -174 5 -189 -4 -9 -5 -12 -64 -12 -233
0 -208 -2 -230 -21 -269 -35 -74 -138 -106 -206 -64 -66 40 -68 48 -71 322 -2
136 -6 248 -10 249 -33 4 -135 5 -165 2z"/>
<path d="M3453 2083 c-10 -4 -13 -90 -13 -384 l0 -379 99 0 c81 0 100 3 105
16 3 9 6 177 6 375 0 279 -3 360 -12 363 -23 7 -173 15 -185 9z"/>
<path d="M3819 2073 c-6 -6 -9 -46 -7 -90 l3 -78 168 -3 c92 -1 167 -5 167 -8
0 -2 -71 -91 -158 -197 -87 -106 -166 -204 -176 -219 -13 -19 -16 -42 -14 -90
l3 -63 313 -3 312 -2 0 90 0 90 -175 0 c-96 0 -175 3 -175 6 0 6 65 87 232
289 l108 129 0 78 c0 55 -4 78 -12 80 -7 1 -141 2 -296 2 -203 1 -286 -2 -293
-11z"/>
<path d="M4617 2083 l-48 -4 3 -87 3 -87 166 -5 166 -5 -173 -210 -173 -210
-1 -77 0 -78 309 0 c350 0 321 -8 321 90 0 96 12 90 -187 90 l-174 0 19 28
c11 15 90 112 176 215 l156 188 0 74 c0 62 -3 74 -17 78 -22 6 -481 6 -546 0z"/>
<path d="M1322 905 c0 -16 2 -22 5 -12 2 9 2 23 0 30 -3 6 -5 -1 -5 -18z"/>
<path d="M1342 895 c0 -16 2 -22 5 -12 2 9 2 23 0 30 -3 6 -5 -1 -5 -18z"/>
<path d="M2388 823 c7 -3 16 -2 19 1 4 3 -2 6 -13 5 -11 0 -14 -3 -6 -6z"/>
<path d="M4988 823 c7 -3 16 -2 19 1 4 3 -2 6 -13 5 -11 0 -14 -3 -6 -6z"/>
<path d="M2529 774 c-9 -11 -9 -18 -1 -26 14 -14 42 -3 42 16 0 20 -27 27 -41
10z"/>
<path d="M3961 776 c-14 -17 -7 -36 14 -36 22 0 29 20 13 36 -13 13 -16 13
-27 0z"/>
<path d="M5120 760 c0 -13 7 -20 20 -20 13 0 20 7 20 20 0 13 -7 20 -20 20
-13 0 -20 -7 -20 -20z"/>
</g>
</svg>
